<?xml version="1.0" standalone="no"?>
<!DOCTYPE svg PUBLIC "-//W3C//DTD SVG 20010904//EN"
 "http://www.w3.org/TR/2001/REC-SVG-20010904/DTD/svg10.dtd">
<svg version="1.0" xmlns="http://www.w3.org/2000/svg"
 width="640.000000pt" height="640.000000pt" viewBox="0 0 640.000000 640.000000"
 preserveAspectRatio="xMidYMid meet">
<metadata>
Created by potrace 1.14, written by Peter Selinger 2001-2017
</metadata>
<g transform="translate(0.000000,640.000000) scale(0.100000,-0.100000)"
fill="#000000" stroke="none">
<path d="M0 3200 l0 -3200 3200 0 3200 0 0 3200 0 3200 -3200 0 -3200 0 0
-3200z m6390 0 l0 -3190 -3190 0 -3190 0 0 3190 0 3190 3190 0 3190 0 0 -3190z"/>
<path d="M3055 5119 c-349 -45 -669 -256 -858 -564 -174 -284 -213 -659 -102
-985 l25 -74 -22 -25 c-13 -14 -27 -31 -33 -36 -5 -6 -50 -55 -100 -110 -49
-55 -92 -102 -95 -105 -3 -3 -43 -47 -90 -99 -47 -52 -102 -113 -122 -135 -40
-44 -46 -56 -25 -56 17 0 185 -19 227 -25 l35 -6 -3 -101 c-13 -365 138 -718
410 -963 l78 -70 -48 -22 c-26 -13 -94 -43 -152 -68 -132 -56 -171 -77 -167
-90 1 -6 62 -9 165 -8 l162 3 -6 -85 c-7 -85 -7 -85 17 -85 13 0 58 18 101 41
79 41 91 41 116 7 25 -34 115 -99 124 -90 5 5 5 51 -2 112 -5 57 -9 105 -7
106 2 2 27 -6 57 -17 29 -11 101 -32 159 -47 98 -24 122 -27 306 -26 216 0
296 12 452 69 39 14 72 25 75 25 2 0 1 -24 -3 -52 -4 -29 -8 -79 -8 -110 -1
-76 12 -76 94 3 l63 60 81 -40 c44 -23 90 -41 102 -41 21 0 21 3 17 85 l-4 85
161 -6 c113 -5 164 -4 169 4 9 15 -54 50 -227 123 l-147 63 37 30 c21 17 69
63 107 103 38 40 74 69 79 66 6 -4 7 -1 2 6 -4 7 1 22 12 34 64 70 148 230
194 363 43 128 60 239 60 396 l0 137 27 5 c15 3 75 10 135 17 59 7 107 16 107
20 0 5 -95 113 -212 241 -116 128 -229 252 -250 275 l-38 42 19 44 c60 139 88
400 62 577 -93 635 -679 1080 -1316 999z m-83 -787 c58 -26 131 -92 163 -146
33 -57 63 -158 73 -241 l8 -70 13 75 c34 206 101 314 231 378 49 24 66 27 165
27 108 0 113 -1 187 -38 88 -43 148 -103 192 -193 24 -48 30 -76 34 -145 5
-106 -12 -174 -67 -255 l-39 -58 63 -91 c357 -523 332 -1300 -55 -1728 -235
-260 -632 -367 -1006 -272 -437 112 -731 526 -760 1072 -20 367 88 721 305
1004 l20 26 -25 34 c-163 220 -64 533 200 630 70 26 230 21 298 -9z"/>
<path d="M2808 3954 c-31 -16 -58 -61 -58 -96 0 -35 34 -83 69 -98 66 -27 151
28 151 98 0 56 -57 113 -112 112 -13 -1 -35 -7 -50 -16z m110 -78 c-2 -13 -10
-21 -23 -21 -23 0 -33 34 -14 45 20 13 40 -1 37 -24z"/>
<path d="M3498 3953 c-60 -38 -70 -118 -21 -168 69 -68 183 -20 183 77 0 80
-96 134 -162 91z m110 -75 c-3 -25 -17 -32 -37 -19 -19 12 -6 41 19 41 16 0
21 -5 18 -22z"/>
<path d="M3000 3625 c0 -9 115 -125 183 -185 l28 -24 104 104 c57 57 102 106
99 109 -11 11 -414 6 -414 -4z"/>
</g>
</svg>
